<svg width="61" height="61" viewBox="0 0 61 61" fill="none" xmlns="http://www.w3.org/2000/svg">
<path d="M49.5625 27.2085C49.4096 26.7098 49.099 26.2742 48.6773 25.9671C48.2557 25.6601 47.7457 25.4981 47.2242 25.5056H34.3379V21.2356L46.4108 21.6677H46.4617C46.9529 21.665 47.4233 21.4687 47.7707 21.1213C48.1181 20.7739 48.3144 20.3036 48.3171 19.8123C48.318 19.5652 48.2688 19.3205 48.1723 19.093C48.0759 18.8656 47.9342 18.66 47.756 18.4889C47.5778 18.3178 47.3666 18.1847 47.1354 18.0976C46.9042 18.0105 46.6577 17.9713 46.4108 17.9823L34.3379 18.4144V13.7377L46.4871 12.0348C46.9265 11.9716 47.3281 11.7514 47.6178 11.415C47.9075 11.0786 48.0656 10.6487 48.0629 10.2048C48.0671 10.1025 48.0586 10 48.0375 9.8998C47.9968 9.654 47.906 9.41919 47.7708 9.2099C47.6356 9.00061 47.4589 8.82131 47.2516 8.68311C47.0443 8.54491 46.8108 8.45075 46.5657 8.40646C46.3205 8.36217 46.0688 8.36869 45.8263 8.42563L34.1346 10.9165C33.8446 10.0641 33.2622 9.34183 32.4907 8.87766C31.7192 8.41349 30.8083 8.23734 29.9194 8.38043C29.0305 8.52351 28.2209 8.97658 27.634 9.6594C27.0471 10.3422 26.7208 11.2107 26.7129 12.111V12.4923L23.8154 13.1023C23.4624 12.3053 22.8459 11.654 22.0695 11.2578C21.293 10.8615 20.4039 10.7445 19.5514 10.9264C18.6989 11.1082 17.9349 11.5778 17.3877 12.2563C16.8404 12.9349 16.5433 13.781 16.5463 14.6527V14.6781L13.4963 15.3135C13.3501 15.3514 13.2207 15.437 13.1286 15.5567C13.0366 15.6764 12.987 15.8234 12.9879 15.9744V16.076C13.0172 16.2434 13.1106 16.3928 13.2482 16.4924C13.3858 16.5921 13.5569 16.6342 13.725 16.6098L16.5463 16.2286V19.0625L13.3692 19.1642C13.199 19.1726 13.0384 19.2457 12.9203 19.3685C12.8022 19.4913 12.7355 19.6546 12.7338 19.825C12.731 19.9967 12.7963 20.1625 12.9153 20.2863C13.0343 20.4101 13.1975 20.4818 13.3692 20.4858L16.5463 20.5875V25.5183H13.7885C13.2652 25.5186 12.7558 25.6866 12.3349 25.9976C11.9141 26.3087 11.604 26.7465 11.4502 27.2467C10.3285 30.8604 10.018 34.6772 10.5408 38.4247C11.0636 42.1723 12.4069 45.7583 14.4748 48.9271L16.0252 51.2654C16.3108 51.7133 16.7056 52.0812 17.1724 52.3346C17.6392 52.5881 18.1628 52.7187 18.694 52.7142H42.3315C42.8585 52.7155 43.3774 52.5834 43.8396 52.3301C44.3018 52.0767 44.6924 51.7105 44.9748 51.2654L46.5252 48.9271C48.5981 45.7534 49.9452 42.1613 50.4702 38.4071C50.9952 34.653 50.6853 30.8292 49.5625 27.2085ZM29.2546 12.111C29.2546 11.774 29.3885 11.4508 29.6268 11.2124C29.8651 10.9741 30.1884 10.8402 30.5254 10.8402C30.8625 10.8402 31.1857 10.9741 31.424 11.2124C31.6624 11.4508 31.7963 11.774 31.7963 12.111V25.4294H29.2546V12.111ZM24.1713 15.1611L26.7129 14.8052V18.694L24.1713 18.7702V15.1611ZM24.1713 20.8798L26.7129 20.956V25.5056H24.1713V20.8798ZM19.0879 14.6527C19.0879 14.3157 19.2218 13.9924 19.4601 13.7541C19.6985 13.5158 20.0217 13.3819 20.3588 13.3819C20.6958 13.3819 21.019 13.5158 21.2574 13.7541C21.4957 13.9924 21.6296 14.3157 21.6296 14.6527V25.4294H19.0879V14.6527ZM44.4029 47.5165L42.8779 49.8802C42.8173 49.9656 42.7374 50.0355 42.6446 50.0841C42.5518 50.1327 42.4489 50.1586 42.3442 50.1598H18.7067C18.6009 50.1644 18.4959 50.141 18.4021 50.0919C18.3084 50.0428 18.2293 49.9698 18.1729 49.8802L16.6225 47.5165C14.7707 44.669 13.5594 41.4534 13.0723 38.0919C12.5852 34.7304 12.8339 31.3032 13.8012 28.0473L47.1479 27.9711C48.1567 31.233 48.4327 34.6775 47.9559 38.0585C47.4792 41.4394 46.2616 44.6733 44.3902 47.5292L44.4029 47.5165Z" fill="#0C5800"/>
</svg>
